<?xml version="1.0" standalone="no"?>
<!DOCTYPE svg PUBLIC "-//W3C//DTD SVG 20010904//EN"
 "http://www.w3.org/TR/2001/REC-SVG-20010904/DTD/svg10.dtd">
<svg version="1.0" xmlns="http://www.w3.org/2000/svg"
 width="706.000000pt" height="706.000000pt" viewBox="0 0 706.000000 706.000000"
 preserveAspectRatio="xMidYMid meet">
<metadata>
Created by potrace 1.14, written by Peter Selinger 2001-2017
</metadata>
<g transform="translate(0.000000,706.000000) scale(0.100000,-0.100000)"
fill="#000000" stroke="none">
<path d="M3339 7045 c-2 -2 -43 -6 -91 -10 -49 -3 -97 -8 -107 -10 -11 -2 -46
-6 -78 -10 -32 -3 -76 -10 -98 -15 -22 -5 -58 -11 -80 -15 -22 -3 -56 -10 -75
-15 -19 -5 -46 -11 -60 -14 -249 -45 -713 -218 -915 -342 -22 -13 -58 -34 -80
-45 -104 -56 -345 -220 -353 -241 -2 -4 -10 -8 -17 -8 -7 0 -15 -3 -17 -7 -1
-5 -25 -26 -53 -47 -75 -59 -232 -203 -297 -271 -130 -138 -165 -177 -213
-237 -27 -35 -52 -65 -55 -68 -34 -33 -230 -322 -230 -339 0 -6 -4 -11 -10
-11 -5 0 -10 -4 -10 -10 0 -5 -13 -31 -28 -57 -46 -77 -167 -320 -177 -353 -1
-3 -12 -27 -24 -55 -13 -27 -24 -58 -26 -67 -2 -10 -10 -32 -18 -50 -14 -31
-66 -184 -71 -211 -2 -7 -6 -19 -9 -27 -7 -17 -57 -213 -63 -250 -3 -14 -9
-42 -15 -62 -5 -20 -8 -40 -7 -45 1 -4 -1 -21 -5 -38 -13 -60 -34 -221 -44
-344 -9 -102 -9 -417 0 -516 18 -194 21 -218 27 -235 1 -3 2 -9 1 -14 -1 -5 3
-32 8 -60 6 -28 13 -67 16 -86 18 -117 96 -406 135 -505 4 -11 13 -36 20 -55
7 -19 16 -44 21 -55 4 -11 20 -49 35 -85 26 -65 149 -318 182 -375 105 -182
209 -341 259 -395 13 -14 23 -28 23 -32 0 -3 6 -13 13 -20 6 -7 32 -37 56 -66
104 -126 349 -372 481 -482 106 -88 286 -214 433 -303 108 -66 446 -237 467
-237 6 0 18 -4 28 -9 9 -5 28 -14 42 -19 30 -14 227 -81 238 -82 4 0 39 -10
77 -21 39 -12 71 -21 72 -21 2 0 17 -4 35 -9 36 -10 152 -35 208 -43 19 -3 49
-8 65 -11 17 -3 44 -7 60 -10 17 -3 41 -8 55 -12 37 -10 836 -13 900 -3 30 4
75 11 100 14 117 17 341 67 455 103 217 68 481 172 565 223 17 10 122 61 130
62 3 1 22 12 42 24 21 13 42 24 48 24 5 0 10 5 10 10 0 6 5 10 10 10 6 0 48
24 94 54 284 183 533 395 736 626 30 34 64 72 75 85 40 45 172 222 231 310
115 170 182 294 317 586 19 41 49 118 66 170 17 52 34 101 38 109 7 18 4 7 41
140 26 90 52 202 54 227 0 5 4 18 9 30 5 13 11 46 14 75 4 29 8 55 10 59 3 3
7 33 10 65 4 33 8 73 10 89 14 96 19 204 19 400 0 226 -9 377 -29 495 -3 14
-7 45 -10 70 -3 25 -8 56 -11 70 -3 14 -8 34 -10 45 -7 36 -22 110 -27 130
-19 74 -28 113 -33 134 -3 14 -7 28 -10 33 -3 4 -7 16 -9 27 -21 111 -113 352
-209 546 -27 55 -49 103 -48 107 1 3 -5 12 -13 18 -8 7 -15 16 -15 21 0 5 -18
38 -40 74 -22 36 -40 68 -40 70 0 10 -194 295 -223 328 -12 14 -31 37 -42 51
-75 96 -148 179 -255 286 -53 52 -122 118 -154 145 -32 28 -66 57 -75 66 -9 8
-36 30 -61 49 -25 19 -47 37 -50 40 -3 3 -23 19 -45 35 -22 17 -42 32 -45 35
-3 3 -39 28 -80 56 -155 106 -416 251 -570 316 -96 41 -199 82 -210 84 -3 0
-16 5 -30 11 -78 35 -412 122 -562 148 -134 23 -134 23 -233 31 -49 4 -110 9
-135 11 -61 5 -437 13 -441 8z m406 -349 c55 -4 116 -8 135 -10 95 -10 166
-19 171 -22 4 -2 31 -6 60 -10 30 -3 62 -10 72 -16 9 -5 17 -7 17 -5 0 3 26
-2 58 -10 31 -7 68 -16 82 -19 14 -3 91 -27 171 -54 191 -62 407 -154 544
-231 61 -34 119 -67 130 -73 61 -34 286 -194 352 -251 6 -5 30 -26 53 -45 71
-59 314 -301 371 -370 30 -36 56 -67 59 -70 3 -3 21 -27 40 -53 19 -27 42 -56
50 -66 8 -9 21 -29 29 -44 8 -15 22 -36 33 -46 10 -11 18 -23 18 -26 0 -3 22
-41 49 -83 58 -92 116 -197 152 -272 58 -123 87 -187 104 -235 10 -27 22 -54
25 -60 4 -5 22 -55 39 -110 18 -55 35 -107 37 -115 3 -8 5 -16 5 -17 0 -2 11
-42 24 -90 25 -94 44 -184 51 -236 2 -18 6 -43 9 -57 12 -61 19 -203 19 -425
1 -231 0 -242 -22 -285 -113 -222 -261 -394 -477 -558 -61 -46 -123 -87 -185
-124 -77 -45 -271 -143 -280 -141 -3 1 -18 -6 -35 -16 -16 -10 -88 -42 -160
-71 -173 -69 -179 -72 -185 -72 -3 0 -16 -5 -30 -10 -55 -22 -560 -155 -602
-158 -51 -5 -56 0 -108 98 -75 140 -115 196 -196 276 -39 39 -78 76 -85 81 -8
6 -35 27 -60 48 -25 20 -51 37 -57 37 -6 0 -12 4 -14 8 -9 21 -254 131 -328
147 -152 33 -189 37 -335 38 -146 2 -273 -6 -307 -18 -7 -2 -24 -7 -38 -9
-307 -58 -637 -315 -785 -609 -22 -43 -46 -82 -55 -87 -10 -6 -50 -1 -106 11
-49 11 -100 22 -114 25 -14 3 -33 7 -42 10 -15 4 -30 8 -83 19 -17 4 -242 72
-315 95 -34 11 -209 78 -240 92 -14 6 -38 16 -55 23 -227 96 -488 250 -650
385 -59 49 -214 212 -220 231 -4 10 -11 19 -16 19 -5 0 -9 7 -9 15 0 8 -3 15
-8 15 -4 0 -12 8 -17 19 -6 10 -23 42 -39 72 -31 58 -72 162 -81 206 -3 15 -9
42 -12 58 -9 42 -8 184 1 285 4 47 9 103 11 125 4 51 16 145 30 230 6 35 11
61 30 140 3 11 7 32 10 47 3 15 9 38 15 52 5 15 7 26 4 26 -3 0 -2 6 3 13 4 6
9 19 10 28 9 59 114 337 179 474 20 44 37 83 36 88 -1 4 2 7 8 7 5 0 10 5 10
10 0 14 161 283 174 292 6 4 8 8 3 8 -12 0 147 215 233 313 179 207 357 370
568 522 69 50 260 175 267 175 2 0 39 20 81 45 41 25 78 45 80 45 3 0 37 15
77 33 40 19 99 44 132 57 33 13 63 29 67 34 4 6 8 8 8 4 0 -4 33 7 73 23 39
16 73 30 74 30 2 0 8 1 15 3 7 3 36 12 64 20 28 9 59 19 70 21 10 3 46 11 79
20 33 8 70 17 83 19 12 3 30 7 40 10 27 8 92 17 152 21 59 4 156 14 205 20 17
2 80 7 140 10 61 4 111 8 112 9 3 2 146 -2 248 -8z m-3153 -4189 c241 -185
450 -302 808 -450 19 -8 71 -27 115 -42 44 -15 89 -31 100 -36 17 -7 117 -37
150 -45 6 -1 48 -14 95 -29 47 -14 94 -28 105 -31 11 -2 31 -7 45 -10 14 -3
36 -8 50 -10 14 -3 34 -7 45 -9 11 -2 35 -8 53 -14 18 -5 35 -10 37 -10 3 0
30 -5 60 -12 56 -12 64 -21 71 -73 7 -56 53 -204 90 -296 47 -115 221 -323
331 -396 32 -21 60 -40 63 -43 10 -12 185 -104 200 -106 3 0 10 -3 15 -6 18
-11 179 -58 220 -65 22 -3 42 -7 45 -9 7 -4 177 -18 220 -18 53 0 234 14 241
19 3 2 21 5 40 8 101 13 264 73 374 139 39 23 72 44 75 47 3 3 23 18 45 35 40
29 207 193 235 230 32 43 80 122 80 133 0 7 5 12 10 12 6 0 10 9 10 20 0 11 4
20 10 20 5 0 9 3 8 8 -1 4 7 32 19 62 11 30 28 91 38 135 9 44 23 90 31 102
14 23 79 46 158 58 21 3 42 7 46 10 3 2 21 7 38 10 55 9 293 70 322 82 8 3 23
8 32 9 29 6 370 131 448 164 41 18 135 61 209 96 73 35 138 64 142 64 5 0 9 4
9 8 0 5 15 16 33 25 84 44 302 197 381 269 10 10 22 15 27 13 7 -5 -38 -148
-67 -212 -8 -17 -14 -34 -14 -37 0 -28 -154 -334 -235 -467 -51 -84 -170 -256
-185 -269 -3 -3 -19 -23 -36 -45 -16 -22 -33 -45 -39 -51 -5 -6 -30 -35 -55
-64 -60 -72 -261 -274 -330 -332 -30 -26 -68 -58 -85 -73 -48 -41 -246 -180
-337 -237 -82 -51 -388 -208 -405 -208 -5 0 -27 -8 -49 -19 -83 -39 -371 -128
-504 -155 -14 -3 -35 -7 -47 -10 -46 -12 -60 -14 -138 -26 -44 -6 -93 -14
-110 -16 -232 -39 -679 -36 -900 6 -27 5 -63 12 -80 15 -16 3 -41 7 -55 10
-14 2 -50 10 -80 15 -30 6 -66 15 -80 20 -14 6 -34 11 -45 13 -11 2 -27 7 -35
10 -8 3 -49 15 -90 28 -106 31 -406 160 -525 226 -102 57 -325 195 -348 216
-24 22 -76 57 -86 57 -5 0 -11 4 -13 9 -1 4 -48 45 -103 91 -130 107 -331 310
-430 435 -22 27 -46 56 -53 63 -6 8 -33 44 -59 80 -26 37 -51 68 -55 70 -5 2
-8 7 -8 11 0 5 -22 41 -48 82 -49 74 -78 125 -158 276 -44 82 -172 394 -184
448 -1 6 -7 19 -12 29 -16 30 10 16 104 -57z m3028 28 c30 -3 69 -7 85 -9 45
-5 147 -35 162 -48 7 -6 13 -7 13 -4 0 9 132 -59 190 -98 134 -89 242 -243
285 -405 20 -77 15 -254 -8 -298 -10 -18 -18 -35 -18 -38 0 -15 -34 -82 -63
-128 -48 -75 -141 -167 -216 -214 -100 -63 -263 -125 -390 -149 -49 -9 -246
-9 -300 0 -161 28 -347 119 -468 228 -90 81 -182 223 -202 313 -15 67 -19 227
-7 284 14 67 85 211 108 219 5 2 9 8 9 14 0 14 158 169 195 191 17 10 46 26
65 35 19 9 37 20 40 23 6 7 117 46 150 53 95 21 131 27 189 31 36 3 67 7 69 9
2 2 15 2 30 0 15 -2 52 -6 82 -9z"/>
</g>
</svg>
